<svg width="201" height="24" viewBox="0 0 201 24" fill="none" xmlns="http://www.w3.org/2000/svg">
<path d="M6.91444 20.2615L11.9057 10.8923L14.1952 15.2308H11.7683C11.173 15.2308 10.5777 15.6 10.303 16.1538L9.66191 17.4462H15.34L16.8511 20.3077C15.3858 21.1846 13.6915 21.6923 11.8599 21.6923C10.074 21.6923 8.37976 21.1846 6.91444 20.2615ZM2.28955 12C2.28955 6.64615 6.59391 2.30769 11.9057 2.30769C17.2174 2.30769 21.5218 6.64615 21.5218 12C21.5218 14.6769 20.4228 17.1231 18.6827 18.8769L13.8289 9.92308C13.4626 9.18462 12.6841 8.72308 11.9057 8.72308C11.0814 8.72308 10.3488 9.23077 9.98244 9.92308L5.12859 18.8769C3.34275 17.1231 2.28955 14.6769 2.28955 12ZM0 12C0 18.6 5.31176 24 11.9057 24C18.4538 24 23.8113 18.6462 23.8113 12C23.8113 5.4 18.4996 0 11.9057 0C5.31176 0 0 5.35385 0 12Z" fill="#845665"/>
<path opacity="0.65" d="M39.5069 17L38.9189 15.236H35.0129L34.4249 17H32.3389L35.7689 7.2H38.1629L41.6069 17H39.5069ZM35.6289 13.43H38.3169L36.9729 9.426L35.6289 13.43ZM52.1484 7.2V17H50.2304V10.644L47.4724 15.194H47.2484L44.4904 10.658V17H42.5584V7.2H44.5464L47.3604 11.834L50.1604 7.2H52.1484ZM57.6285 7.2C58.5711 7.2 59.3645 7.51733 60.0085 8.152C60.6525 8.78667 60.9745 9.566 60.9745 10.49C60.9745 11.414 60.6525 12.1933 60.0085 12.828C59.3645 13.4627 58.5711 13.78 57.6285 13.78H55.9065V17H53.9745V7.2H57.6285ZM57.6285 11.974C58.0391 11.974 58.3798 11.834 58.6505 11.554C58.9211 11.2647 59.0565 10.91 59.0565 10.49C59.0565 10.0607 58.9211 9.706 58.6505 9.426C58.3798 9.146 58.0391 9.006 57.6285 9.006H55.9065V11.974H57.6285ZM67.6083 17L65.6343 13.598H64.1643V17H62.2323V7.2H66.1523C67.0576 7.2 67.8276 7.51733 68.4623 8.152C69.0969 8.78667 69.4143 9.552 69.4143 10.448C69.4143 11.0547 69.2416 11.6193 68.8963 12.142C68.5509 12.6553 68.0936 13.0427 67.5243 13.304L69.6943 17H67.6083ZM64.1643 9.006V11.904H66.1523C66.5163 11.904 66.8289 11.764 67.0903 11.484C67.3516 11.1947 67.4823 10.8493 67.4823 10.448C67.4823 10.0467 67.3516 9.706 67.0903 9.426C66.8289 9.146 66.5163 9.006 66.1523 9.006H64.1643ZM70.8319 7.2H72.7639V17H70.8319V7.2ZM77.7736 17.196C76.8029 17.196 75.9862 16.9813 75.3236 16.552C74.6609 16.1133 74.1942 15.5207 73.9236 14.774L75.5756 13.808C75.9582 14.8067 76.7096 15.306 77.8296 15.306C78.3709 15.306 78.7676 15.208 79.0196 15.012C79.2716 14.816 79.3976 14.5687 79.3976 14.27C79.3976 13.9247 79.2436 13.6587 78.9356 13.472C78.6276 13.276 78.0769 13.066 77.2836 12.842C76.8449 12.7113 76.4716 12.5807 76.1636 12.45C75.8649 12.3193 75.5616 12.1467 75.2536 11.932C74.9549 11.708 74.7262 11.428 74.5676 11.092C74.4089 10.756 74.3296 10.364 74.3296 9.916C74.3296 9.02933 74.6422 8.32467 75.2676 7.802C75.9022 7.27 76.6629 7.004 77.5496 7.004C78.3429 7.004 79.0382 7.2 79.6356 7.592C80.2422 7.97467 80.7136 8.51133 81.0496 9.202L79.4256 10.14C79.0336 9.3 78.4082 8.88 77.5496 8.88C77.1482 8.88 76.8309 8.97333 76.5976 9.16C76.3736 9.33733 76.2616 9.57067 76.2616 9.86C76.2616 10.168 76.3876 10.42 76.6396 10.616C76.9009 10.8027 77.3956 11.008 78.1236 11.232C78.4222 11.3253 78.6462 11.4 78.7956 11.456C78.9542 11.5027 79.1642 11.582 79.4256 11.694C79.6962 11.7967 79.9016 11.8947 80.0416 11.988C80.1909 12.0813 80.3589 12.2073 80.5456 12.366C80.7322 12.5247 80.8722 12.688 80.9656 12.856C81.0682 13.024 81.1522 13.2293 81.2176 13.472C81.2922 13.7053 81.3296 13.962 81.3296 14.242C81.3296 15.1473 80.9982 15.866 80.3356 16.398C79.6822 16.93 78.8282 17.196 77.7736 17.196ZM84.4533 15.152H88.5833V17H82.5213V7.2H88.5133V9.048H84.4533V11.134H88.1633V12.954H84.4533V15.152ZM103.035 7.2V17H101.117V10.644L98.3592 15.194H98.1352L95.3772 10.658V17H93.4452V7.2H95.4332L98.2472 11.834L101.047 7.2H103.035ZM111.161 17L110.573 15.236H106.667L106.079 17H103.993L107.423 7.2H109.817L113.261 17H111.161ZM107.283 13.43H109.971L108.627 9.426L107.283 13.43ZM118.105 7.2C119.449 7.2 120.569 7.67133 121.465 8.614C122.37 9.55667 122.823 10.7187 122.823 12.1C122.823 13.4813 122.37 14.6433 121.465 15.586C120.569 16.5287 119.449 17 118.105 17H114.213V7.2H118.105ZM118.105 15.152C118.954 15.152 119.645 14.872 120.177 14.312C120.709 13.7427 120.975 13.0053 120.975 12.1C120.975 11.1947 120.709 10.462 120.177 9.902C119.645 9.33267 118.954 9.048 118.105 9.048H116.145V15.152H118.105ZM126.125 15.152H130.255V17H124.193V7.2H130.185V9.048H126.125V11.134H129.835V12.954H126.125V15.152ZM137.161 17L134.417 7.2H136.447L138.323 14.466L140.367 7.2H142.019L144.077 14.466L145.953 7.2H147.983L145.239 17H143.041L141.193 10.532L139.359 17H137.161ZM149.103 7.2H151.035V17H149.103V7.2ZM159.331 7.2V9.048H156.685V17H154.753V9.048H152.121V7.2H159.331ZM165.982 7.2H167.9V17H165.982V12.94H162.342V17H160.41V7.2H162.342V11.092H165.982V7.2Z" fill="#845665"/>
<path d="M188.742 20.9038C168.857 10.0339 182.777 -1.76612 188.742 5.69547C194.708 -1.76612 208.627 10.0339 188.742 20.9038Z" fill="#845665"/>
</svg>
