<svg width="164" height="164" viewBox="0 0 164 164" fill="none" xmlns="http://www.w3.org/2000/svg">
<path d="M160.255 96.065L158.857 95.8975L159.253 92.6092L149.53 91.4444L149.706 89.9829L159.429 91.1478L159.822 87.8753L161.22 88.0428L160.255 96.065Z" fill="#290E17"/>
<path d="M143.945 110.738L146.618 110.815L148.48 106.131L146.481 104.359L147.066 102.887L155.937 110.891L155.316 112.452L143.36 112.21L143.945 110.738ZM149.585 107.12L148.101 110.852L153.978 111.011L149.585 107.12Z" fill="#290E17"/>
<path d="M134.206 125.965L135.297 124.503L142.501 123.836L138.185 120.63L139.075 119.437L148.066 126.116L147.176 127.309L143.118 124.294L144.383 131.054L143.293 132.516L141.881 125.309L134.206 125.965Z" fill="#290E17"/>
<path d="M126.678 135.247L122.643 138.527L121.753 137.436L126.942 133.217L134.024 141.894L128.897 146.063L128.007 144.972L131.979 141.742L129.804 139.077L126.142 142.054L125.262 140.976L128.924 137.999L126.678 135.247Z" fill="#290E17"/>
<path d="M93.7784 149.116L95.2412 151.353L100.148 150.204L100.462 147.551L102.004 147.19L100.501 159.045L98.8651 159.428L92.2361 149.477L93.7784 149.116ZM99.9685 151.676L96.0583 152.592L99.2843 157.506L99.9685 151.676Z" fill="#290E17"/>
<path d="M59.9689 158.218L60.2806 156.845L63.5111 157.575L65.679 148.026L67.1147 148.351L64.9468 157.9L68.1616 158.627L67.8499 160L59.9689 158.218Z" fill="#290E17"/>
<path d="M47.9289 140.924L48.1653 145.884L50.5056 147.106L52.4961 143.308L53.8152 143.996L48.6161 153.917L44.6447 151.843C43.7936 151.399 43.224 150.717 42.9357 149.796C42.6425 148.885 42.7187 148.004 43.1643 147.154C43.501 146.512 44.0019 146.027 44.6668 145.7C45.3224 145.369 46.0096 145.252 46.7287 145.351L46.468 140.161L47.9289 140.924ZM47.9432 151.995L49.8817 148.296L47.2294 146.912C46.7377 146.655 46.2275 146.617 45.699 146.799C45.156 146.984 44.7508 147.332 44.4834 147.843C44.216 148.353 44.1632 148.879 44.3249 149.42C44.4772 149.957 44.7991 150.354 45.2908 150.61L47.9432 151.995Z" fill="#290E17"/>
<path d="M32.8415 129.153L31.7976 131.611L35.4919 135.039L37.8728 133.822L39.0339 134.899L28.3381 140.253L27.1066 139.11L31.6804 128.075L32.8415 129.153ZM34.1677 135.709L31.224 132.978L28.9389 138.388L34.1677 135.709Z" fill="#290E17"/>
<path d="M16.6163 126.737L15.7845 125.503L25.0822 119.259L25.9141 120.492L16.6163 126.737Z" fill="#290E17"/>
<path d="M6.72725 106.934L6.20883 105.539L16.7122 101.65L17.1302 102.775L11.2895 111.079L19.137 108.174L19.6554 109.569L9.15209 113.457L8.73401 112.333L14.5597 104.034L6.72725 106.934Z" fill="#290E17"/>
<path d="M3.40075 92.0024L3.22874 90.5244L14.3542 89.2347L14.5263 90.7127L3.40075 92.0024Z" fill="#290E17"/>
<path d="M3.72322 69.5552L3.90661 68.0786L15.0219 69.4536L14.874 70.6444L5.85941 75.3332L14.1641 76.3605L13.9807 77.8371L2.86544 76.4622L3.01333 75.2713L12.012 70.5806L3.72322 69.5552Z" fill="#290E17"/>
<path d="M17.1352 46.8408L17.7503 47.1114C19.088 47.6997 19.9986 48.6479 20.4821 49.9559C20.9559 51.2596 20.8589 52.6677 20.1911 54.1801C19.5017 55.7414 18.4182 56.8088 16.9406 57.3825C15.4575 57.9421 13.9739 57.8956 12.4898 57.2428C11.0056 56.5901 9.97497 55.5309 9.39783 54.0652C8.81523 52.5854 8.86431 51.0747 9.54505 49.533C9.96298 48.5865 10.5759 47.8189 11.3838 47.2304C12.1819 46.6375 13.0468 46.2896 13.9785 46.1866L14.1498 47.6603C13.464 47.7083 12.8237 47.9569 12.2289 48.4061C11.6287 48.8413 11.1713 49.415 10.8567 50.1273C10.3397 51.2983 10.301 52.429 10.7406 53.5196C11.1705 54.6059 11.9517 55.3981 13.0843 55.8963C14.217 56.3944 15.33 56.4353 16.4233 56.0189C17.521 55.5927 18.3348 54.7795 18.8647 53.5793C19.3171 52.5547 19.4344 51.6158 19.2165 50.7626C18.9888 49.905 18.5048 49.2319 17.7644 48.7431L16.1035 52.5048L14.8732 51.9637L17.1352 46.8408Z" fill="#290E17"/>
<path d="M40.0959 28.8451C38.7684 29.9005 37.3211 30.3358 35.754 30.1508C34.1953 29.9591 32.9069 29.2256 31.8889 27.95C30.8708 26.6745 30.4424 25.2573 30.6037 23.6982C30.7734 22.1325 31.522 20.8219 32.8495 19.7665C33.6511 19.1292 34.5389 18.7368 35.513 18.5892C36.4954 18.435 37.4339 18.5337 38.3287 18.8853L37.7833 20.2795C37.1469 19.9951 36.4651 19.9104 35.7379 20.0252C35.0124 20.1251 34.349 20.414 33.7479 20.8919C32.7376 21.6951 32.1705 22.6774 32.0466 23.8388C31.9311 24.9935 32.2626 26.0586 33.0411 27.034C33.813 28.0011 34.7757 28.5575 35.9293 28.7032C37.0912 28.8424 38.1773 28.5103 39.1876 27.7071C39.7888 27.2292 40.2226 26.6527 40.489 25.9776C40.757 25.2875 40.8267 24.6053 40.6979 23.931L42.1715 23.6997C42.3231 24.642 42.2172 25.5779 41.8536 26.5075C41.4834 27.4286 40.8975 28.2078 40.0959 28.8451Z" fill="#290E17"/>
<path d="M60.7368 15.848C60.1022 17.3064 59.029 18.3283 57.5171 18.914C56.0052 19.4996 54.5222 19.4678 53.068 18.8185C51.6138 18.1692 50.5948 17.094 50.0111 15.5929C49.4234 14.0818 49.4488 12.6021 50.0873 11.1537C50.7219 9.69535 51.7951 8.67338 53.307 8.08776C54.8189 7.50215 56.3019 7.53396 57.7561 8.18321C59.2164 8.81867 60.2403 9.89195 60.828 11.403C61.4117 12.9042 61.3813 14.3859 60.7368 15.848ZM53.6575 17.5092C54.7349 17.9841 55.8455 18 56.9894 17.5569C58.1332 17.1139 58.9373 16.3563 59.4017 15.2842C59.8721 14.1983 59.885 13.0838 59.4404 11.9405C58.9919 10.7873 58.229 9.97324 57.1516 9.49832C56.0803 9.00961 54.9728 8.98679 53.8289 9.42985C52.685 9.87292 51.8779 10.6374 51.4075 11.7233C50.9432 12.7954 50.9352 13.908 51.3837 15.0612C51.8283 16.2045 52.5862 17.0205 53.6575 17.5092Z" fill="#290E17"/>
<path d="M79.4049 13.25C78.6897 14.028 77.7157 14.4693 76.4828 14.5739C75.2499 14.6786 74.2098 14.4083 73.3626 13.7629C72.5252 13.1061 72.0552 12.1772 71.9529 10.9762L71.3211 3.56307L72.8038 3.43721L73.4301 10.7866C73.4972 11.5731 73.7844 12.1803 74.2919 12.6082C74.7985 13.0255 75.4876 13.1972 76.3591 13.1232C77.2307 13.0492 77.8808 12.7639 78.3095 12.2672C78.7373 11.7598 78.9177 11.1129 78.8506 10.3265L78.2243 2.97709L79.691 2.85259L80.3228 10.2657C80.4251 11.4667 80.1192 12.4615 79.4049 13.25Z" fill="#290E17"/>
<path d="M97.3234 15.7944L95.6427 11.1193L93.0475 10.6355L92.2587 14.8503L90.7959 14.5776L92.8561 3.56877L97.2603 4.38973C98.204 4.56565 98.9487 5.05167 99.4942 5.84779C100.042 6.63342 100.227 7.49805 100.051 8.44166C99.9171 9.15462 99.5805 9.76459 99.0407 10.2716C98.5113 10.7805 97.8886 11.093 97.1723 11.2091L98.9435 16.0964L97.3234 15.7944ZM94.0629 5.20969L93.2947 9.31443L96.236 9.86271C96.7813 9.96436 97.28 9.85116 97.732 9.52311C98.1965 9.18653 98.4818 8.73516 98.5877 8.16899C98.6937 7.60281 98.5899 7.08436 98.2765 6.61362C97.9736 6.14484 97.5495 5.85962 97.0042 5.75798L94.0629 5.20969Z" fill="#290E17"/>
<path d="M111.033 20.7994C110.091 20.3468 109.39 19.7379 108.93 18.9726C108.479 18.212 108.305 17.3827 108.406 16.4848L109.88 16.376C109.686 17.7856 110.29 18.8275 111.694 19.5018C112.387 19.8343 112.983 19.949 113.482 19.8458C113.987 19.7331 114.352 19.4413 114.579 18.9706C114.811 18.4902 114.802 18.0421 114.553 17.6264C114.303 17.2107 113.815 16.6629 113.089 15.9828C112.731 15.6451 112.46 15.3847 112.276 15.2016C112.096 15.0089 111.878 14.7501 111.62 14.4251C111.376 14.0951 111.215 13.8044 111.135 13.553C111.059 13.2919 111.024 12.9849 111.028 12.632C111.042 12.2838 111.137 11.9271 111.313 11.562C111.735 10.6877 112.376 10.1437 113.237 9.93005C114.103 9.7068 114.978 9.80761 115.862 10.2325C116.66 10.6158 117.255 11.1501 117.647 11.8354C118.049 12.5252 118.239 13.2732 118.217 14.0793L116.779 14.1875C116.847 12.942 116.333 12.0561 115.237 11.5296C114.689 11.2663 114.181 11.1884 113.715 11.2958C113.249 11.4031 112.905 11.6874 112.682 12.1486C112.469 12.5906 112.466 13.003 112.672 13.386C112.878 13.769 113.31 14.2725 113.968 14.8964C114.206 15.1168 114.373 15.2739 114.469 15.3677C114.566 15.4616 114.712 15.6143 114.906 15.8258C115.109 16.042 115.255 16.2066 115.343 16.3197C115.43 16.4327 115.545 16.5883 115.686 16.7863C115.837 16.989 115.937 17.1615 115.987 17.3037C116.037 17.446 116.09 17.6192 116.145 17.8234C116.215 18.0225 116.244 18.208 116.232 18.3799C116.22 18.5517 116.187 18.7429 116.133 18.9535C116.093 19.1592 116.022 19.3677 115.92 19.5791C115.494 20.463 114.831 21.0144 113.932 21.2335C113.038 21.4428 112.071 21.2982 111.033 20.7994Z" fill="#290E17"/>
<path d="M125.71 28.085L129.696 31.4237L128.79 32.5014L123.663 28.2073L130.87 19.6348L135.937 23.8775L135.03 24.9552L131.105 21.6679L128.891 24.3009L132.51 27.3314L131.614 28.3968L127.995 25.3663L125.71 28.085Z" fill="#290E17"/>
<path d="M152.093 56.6001C151.672 56.3482 151.405 55.9782 151.29 55.4901C151.176 55.002 151.25 54.5465 151.512 54.1234C151.774 53.7003 152.149 53.4315 152.637 53.317C153.126 53.2025 153.576 53.2776 153.989 53.5423C154.412 53.8046 154.681 54.1798 154.795 54.6679C154.91 55.156 154.834 55.6063 154.57 56.0191C154.318 56.4397 153.948 56.7073 153.46 56.8218C152.972 56.9363 152.516 56.8624 152.093 56.6001Z" fill="#2D0F19"/>
</svg>
