<svg width="177" height="175" viewBox="0 0 177 175" fill="none" xmlns="http://www.w3.org/2000/svg">
<rect x="47" width="130" height="130" fill="#FCF7F1"/>
<path d="M54 138C54 137.448 54.4477 137 55 137V137C55.5523 137 56 137.448 56 138V138C56 138.552 55.5523 139 55 139V139C54.4477 139 54 138.552 54 138V138Z" fill="#A07F58"/>
<path d="M36 138C36 137.448 36.4477 137 37 137V137C37.5523 137 38 137.448 38 138V138C38 138.552 37.5523 139 37 139V139C36.4477 139 36 138.552 36 138V138Z" fill="#A07F58"/>
<path d="M36 120C36 119.448 36.4477 119 37 119V119C37.5523 119 38 119.448 38 120V120C38 120.552 37.5523 121 37 121V121C36.4477 121 36 120.552 36 120V120Z" fill="#A07F58"/>
<path d="M54 120C54 119.448 54.4477 119 55 119V119C55.5523 119 56 119.448 56 120V120C56 120.552 55.5523 121 55 121V121C54.4477 121 54 120.552 54 120V120Z" fill="#A07F58"/>
<path d="M72 120C72 119.448 72.4477 119 73 119V119C73.5523 119 74 119.448 74 120V120C74 120.552 73.5523 121 73 121V121C72.4477 121 72 120.552 72 120V120Z" fill="#A07F58"/>
<path d="M72 138C72 137.448 72.4477 137 73 137V137C73.5523 137 74 137.448 74 138V138C74 138.552 73.5523 139 73 139V139C72.4477 139 72 138.552 72 138V138Z" fill="#A07F58"/>
<path d="M72 156C72 155.448 72.4477 155 73 155V155C73.5523 155 74 155.448 74 156V156C74 156.552 73.5523 157 73 157V157C72.4477 157 72 156.552 72 156V156Z" fill="#A07F58"/>
<path d="M54 156C54 155.448 54.4477 155 55 155V155C55.5523 155 56 155.448 56 156V156C56 156.552 55.5523 157 55 157V157C54.4477 157 54 156.552 54 156V156Z" fill="#A07F58"/>
<path d="M36 156C36 155.448 36.4477 155 37 155V155C37.5523 155 38 155.448 38 156V156C38 156.552 37.5523 157 37 157V157C36.4477 157 36 156.552 36 156V156Z" fill="#A07F58"/>
<path d="M18 156C18 155.448 18.4477 155 19 155V155C19.5523 155 20 155.448 20 156V156C20 156.552 19.5523 157 19 157V157C18.4477 157 18 156.552 18 156V156Z" fill="#A07F58"/>
<path d="M18 138C18 137.448 18.4477 137 19 137V137C19.5523 137 20 137.448 20 138V138C20 138.552 19.5523 139 19 139V139C18.4477 139 18 138.552 18 138V138Z" fill="#A07F58"/>
<path d="M18 120C18 119.448 18.4477 119 19 119V119C19.5523 119 20 119.448 20 120V120C20 120.552 19.5523 121 19 121V121C18.4477 121 18 120.552 18 120V120Z" fill="#A07F58"/>
<path d="M18 102C18 101.448 18.4477 101 19 101V101C19.5523 101 20 101.448 20 102V102C20 102.552 19.5523 103 19 103V103C18.4477 103 18 102.552 18 102V102Z" fill="#A07F58"/>
<path d="M36 102C36 101.448 36.4477 101 37 101V101C37.5523 101 38 101.448 38 102V102C38 102.552 37.5523 103 37 103V103C36.4477 103 36 102.552 36 102V102Z" fill="#A07F58"/>
<path d="M54 102C54 101.448 54.4477 101 55 101V101C55.5523 101 56 101.448 56 102V102C56 102.552 55.5523 103 55 103V103C54.4477 103 54 102.552 54 102V102Z" fill="#A07F58"/>
<path d="M72 102C72 101.448 72.4477 101 73 101V101C73.5523 101 74 101.448 74 102V102C74 102.552 73.5523 103 73 103V103C72.4477 103 72 102.552 72 102V102Z" fill="#A07F58"/>
<path d="M90 102C90 101.448 90.4477 101 91 101V101C91.5523 101 92 101.448 92 102V102C92 102.552 91.5523 103 91 103V103C90.4477 103 90 102.552 90 102V102Z" fill="#A07F58"/>
<path d="M90 120C90 119.448 90.4477 119 91 119V119C91.5523 119 92 119.448 92 120V120C92 120.552 91.5523 121 91 121V121C90.4477 121 90 120.552 90 120V120Z" fill="#A07F58"/>
<path d="M90 138C90 137.448 90.4477 137 91 137V137C91.5523 137 92 137.448 92 138V138C92 138.552 91.5523 139 91 139V139C90.4477 139 90 138.552 90 138V138Z" fill="#A07F58"/>
<path d="M90 156C90 155.448 90.4477 155 91 155V155C91.5523 155 92 155.448 92 156V156C92 156.552 91.5523 157 91 157V157C90.4477 157 90 156.552 90 156V156Z" fill="#A07F58"/>
<path d="M90 174C90 173.448 90.4477 173 91 173V173C91.5523 173 92 173.448 92 174V174C92 174.552 91.5523 175 91 175V175C90.4477 175 90 174.552 90 174V174Z" fill="#A07F58"/>
<path d="M72 174C72 173.448 72.4477 173 73 173V173C73.5523 173 74 173.448 74 174V174C74 174.552 73.5523 175 73 175V175C72.4477 175 72 174.552 72 174V174Z" fill="#A07F58"/>
<path d="M54 174C54 173.448 54.4477 173 55 173V173C55.5523 173 56 173.448 56 174V174C56 174.552 55.5523 175 55 175V175C54.4477 175 54 174.552 54 174V174Z" fill="#A07F58"/>
<path d="M36 174C36 173.448 36.4477 173 37 173V173C37.5523 173 38 173.448 38 174V174C38 174.552 37.5523 175 37 175V175C36.4477 175 36 174.552 36 174V174Z" fill="#A07F58"/>
<path d="M18 174C18 173.448 18.4477 173 19 173V173C19.5523 173 20 173.448 20 174V174C20 174.552 19.5523 175 19 175V175C18.4477 175 18 174.552 18 174V174Z" fill="#A07F58"/>
<path d="M0 174C0 173.448 0.447715 173 1 173V173C1.55228 173 2 173.448 2 174V174C2 174.552 1.55228 175 1 175V175C0.447715 175 0 174.552 0 174V174Z" fill="#A07F58"/>
<path d="M0 156C0 155.448 0.447715 155 1 155V155C1.55228 155 2 155.448 2 156V156C2 156.552 1.55228 157 1 157V157C0.447715 157 0 156.552 0 156V156Z" fill="#A07F58"/>
<path d="M0 138C0 137.448 0.447715 137 1 137V137C1.55228 137 2 137.448 2 138V138C2 138.552 1.55228 139 1 139V139C0.447715 139 0 138.552 0 138V138Z" fill="#A07F58"/>
<path d="M0 120C0 119.448 0.447715 119 1 119V119C1.55228 119 2 119.448 2 120V120C2 120.552 1.55228 121 1 121V121C0.447715 121 0 120.552 0 120V120Z" fill="#A07F58"/>
<path d="M0 102C0 101.448 0.447715 101 1 101V101C1.55228 101 2 101.448 2 102V102C2 102.552 1.55228 103 1 103V103C0.447715 103 0 102.552 0 102V102Z" fill="#A07F58"/>
<path d="M0 84C0 83.4477 0.447715 83 1 83V83C1.55228 83 2 83.4477 2 84V84C2 84.5523 1.55228 85 1 85V85C0.447715 85 0 84.5523 0 84V84Z" fill="#A07F58"/>
<path d="M18 84C18 83.4477 18.4477 83 19 83V83C19.5523 83 20 83.4477 20 84V84C20 84.5523 19.5523 85 19 85V85C18.4477 85 18 84.5523 18 84V84Z" fill="#A07F58"/>
<path d="M36 84C36 83.4477 36.4477 83 37 83V83C37.5523 83 38 83.4477 38 84V84C38 84.5523 37.5523 85 37 85V85C36.4477 85 36 84.5523 36 84V84Z" fill="#A07F58"/>
<path d="M54 84C54 83.4477 54.4477 83 55 83V83C55.5523 83 56 83.4477 56 84V84C56 84.5523 55.5523 85 55 85V85C54.4477 85 54 84.5523 54 84V84Z" fill="#A07F58"/>
<path d="M72 84C72 83.4477 72.4477 83 73 83V83C73.5523 83 74 83.4477 74 84V84C74 84.5523 73.5523 85 73 85V85C72.4477 85 72 84.5523 72 84V84Z" fill="#A07F58"/>
<path d="M90 84C90 83.4477 90.4477 83 91 83V83C91.5523 83 92 83.4477 92 84V84C92 84.5523 91.5523 85 91 85V85C90.4477 85 90 84.5523 90 84V84Z" fill="#A07F58"/>
</svg>
