<svg width="103" height="103" viewBox="0 0 103 103" fill="none" xmlns="http://www.w3.org/2000/svg">
<path d="M100 1C100 1.55228 100.448 2 101 2C101.552 2 102 1.55228 102 1C102 0.447715 101.552 0 101 0C100.448 0 100 0.447715 100 1Z" fill="#A07F58"/>
<path d="M0 1C0 1.55228 0.447715 2 1 2C1.55228 2 2 1.55228 2 1C2 0.447715 1.55228 0 1 0C0.447715 0 0 0.447715 0 1Z" fill="#A07F58"/>
<path d="M20 1C20 1.55228 20.4477 2 21 2C21.5523 2 22 1.55228 22 1C22 0.447715 21.5523 0 21 0C20.4477 0 20 0.447715 20 1Z" fill="#A07F58"/>
<path d="M40 1C40 1.55228 40.4477 2 41 2C41.5523 2 42 1.55228 42 1C42 0.447715 41.5523 0 41 0C40.4477 0 40 0.447715 40 1Z" fill="#A07F58"/>
<path d="M60 1C60 1.55228 60.4477 2 61 2C61.5523 2 62 1.55228 62 1C62 0.447715 61.5523 0 61 0C60.4477 0 60 0.447715 60 1Z" fill="#A07F58"/>
<path d="M80 1C80 1.55228 80.4477 2 81 2C81.5523 2 82 1.55228 82 1C82 0.447715 81.5523 0 81 0C80.4477 0 80 0.447715 80 1Z" fill="#A07F58"/>
<path d="M100 21C100 21.5523 100.448 22 101 22C101.552 22 102 21.5523 102 21C102 20.4477 101.552 20 101 20C100.448 20 100 20.4477 100 21Z" fill="#A07F58"/>
<path d="M0 21C0 21.5523 0.447715 22 1 22C1.55228 22 2 21.5523 2 21C2 20.4477 1.55228 20 1 20C0.447715 20 0 20.4477 0 21Z" fill="#A07F58"/>
<path d="M20 21C20 21.5523 20.4477 22 21 22C21.5523 22 22 21.5523 22 21C22 20.4477 21.5523 20 21 20C20.4477 20 20 20.4477 20 21Z" fill="#A07F58"/>
<path d="M40 21C40 21.5523 40.4477 22 41 22C41.5523 22 42 21.5523 42 21C42 20.4477 41.5523 20 41 20C40.4477 20 40 20.4477 40 21Z" fill="#A07F58"/>
<path d="M60 21C60 21.5523 60.4477 22 61 22C61.5523 22 62 21.5523 62 21C62 20.4477 61.5523 20 61 20C60.4477 20 60 20.4477 60 21Z" fill="#A07F58"/>
<path d="M80 21C80 21.5523 80.4477 22 81 22C81.5523 22 82 21.5523 82 21C82 20.4477 81.5523 20 81 20C80.4477 20 80 20.4477 80 21Z" fill="#A07F58"/>
<path d="M100 41C100 41.5523 100.448 42 101 42C101.552 42 102 41.5523 102 41C102 40.4477 101.552 40 101 40C100.448 40 100 40.4477 100 41Z" fill="#A07F58"/>
<path d="M0 41C0 41.5523 0.447715 42 1 42C1.55228 42 2 41.5523 2 41C2 40.4477 1.55228 40 1 40C0.447715 40 0 40.4477 0 41Z" fill="#A07F58"/>
<path d="M20 41C20 41.5523 20.4477 42 21 42C21.5523 42 22 41.5523 22 41C22 40.4477 21.5523 40 21 40C20.4477 40 20 40.4477 20 41Z" fill="#A07F58"/>
<path d="M40 41C40 41.5523 40.4477 42 41 42C41.5523 42 42 41.5523 42 41C42 40.4477 41.5523 40 41 40C40.4477 40 40 40.4477 40 41Z" fill="#A07F58"/>
<path d="M60 41C60 41.5523 60.4477 42 61 42C61.5523 42 62 41.5523 62 41C62 40.4477 61.5523 40 61 40C60.4477 40 60 40.4477 60 41Z" fill="#A07F58"/>
<path d="M80 41C80 41.5523 80.4477 42 81 42C81.5523 42 82 41.5523 82 41C82 40.4477 81.5523 40 81 40C80.4477 40 80 40.4477 80 41Z" fill="#A07F58"/>
<path d="M100 61C100 61.5523 100.448 62 101 62C101.552 62 102 61.5523 102 61C102 60.4477 101.552 60 101 60C100.448 60 100 60.4477 100 61Z" fill="#A07F58"/>
<path d="M0 61C0 61.5523 0.447715 62 1 62C1.55228 62 2 61.5523 2 61C2 60.4477 1.55228 60 1 60C0.447715 60 0 60.4477 0 61Z" fill="#A07F58"/>
<path d="M20 61C20 61.5523 20.4477 62 21 62C21.5523 62 22 61.5523 22 61C22 60.4477 21.5523 60 21 60C20.4477 60 20 60.4477 20 61Z" fill="#A07F58"/>
<path d="M40 61C40 61.5523 40.4477 62 41 62C41.5523 62 42 61.5523 42 61C42 60.4477 41.5523 60 41 60C40.4477 60 40 60.4477 40 61Z" fill="#A07F58"/>
<path d="M60 61C60 61.5523 60.4477 62 61 62C61.5523 62 62 61.5523 62 61C62 60.4477 61.5523 60 61 60C60.4477 60 60 60.4477 60 61Z" fill="#A07F58"/>
<path d="M80 61C80 61.5523 80.4477 62 81 62C81.5523 62 82 61.5523 82 61C82 60.4477 81.5523 60 81 60C80.4477 60 80 60.4477 80 61Z" fill="#A07F58"/>
<path d="M100 81C100 81.5523 100.448 82 101 82C101.552 82 102 81.5523 102 81C102 80.4477 101.552 80 101 80C100.448 80 100 80.4477 100 81Z" fill="#A07F58"/>
<path d="M0 81C0 81.5523 0.447715 82 1 82C1.55228 82 2 81.5523 2 81C2 80.4477 1.55228 80 1 80C0.447715 80 0 80.4477 0 81Z" fill="#A07F58"/>
<path d="M20 81C20 81.5523 20.4477 82 21 82C21.5523 82 22 81.5523 22 81C22 80.4477 21.5523 80 21 80C20.4477 80 20 80.4477 20 81Z" fill="#A07F58"/>
<path d="M40 81C40 81.5523 40.4477 82 41 82C41.5523 82 42 81.5523 42 81C42 80.4477 41.5523 80 41 80C40.4477 80 40 80.4477 40 81Z" fill="#A07F58"/>
<path d="M60 81C60 81.5523 60.4477 82 61 82C61.5523 82 62 81.5523 62 81C62 80.4477 61.5523 80 61 80C60.4477 80 60 80.4477 60 81Z" fill="#A07F58"/>
<path d="M80 81C80 81.5523 80.4477 82 81 82C81.5523 82 82 81.5523 82 81C82 80.4477 81.5523 80 81 80C80.4477 80 80 80.4477 80 81Z" fill="#A07F58"/>
<path d="M100 101C100 101.552 100.448 102 101 102C101.552 102 102 101.552 102 101C102 100.448 101.552 100 101 100C100.448 100 100 100.448 100 101Z" fill="#A07F58"/>
<path d="M0 101C0 101.552 0.447715 102 1 102C1.55228 102 2 101.552 2 101C2 100.448 1.55228 100 1 100C0.447715 100 0 100.448 0 101Z" fill="#A07F58"/>
<path d="M20 101C20 101.552 20.4477 102 21 102C21.5523 102 22 101.552 22 101C22 100.448 21.5523 100 21 100C20.4477 100 20 100.448 20 101Z" fill="#A07F58"/>
<path d="M40 101C40 101.552 40.4477 102 41 102C41.5523 102 42 101.552 42 101C42 100.448 41.5523 100 41 100C40.4477 100 40 100.448 40 101Z" fill="#A07F58"/>
<path d="M60 101C60 101.552 60.4477 102 61 102C61.5523 102 62 101.552 62 101C62 100.448 61.5523 100 61 100C60.4477 100 60 100.448 60 101Z" fill="#A07F58"/>
<path d="M80 101C80 101.552 80.4477 102 81 102C81.5523 102 82 101.552 82 101C82 100.448 81.5523 100 81 100C80.4477 100 80 100.448 80 101Z" fill="#A07F58"/>
</svg>
