<svg width="235" height="110" viewBox="0 0 235 110" fill="none" xmlns="http://www.w3.org/2000/svg">
<g clip-path="url(#clip0)">
<path d="M234 100C233.448 100 233 100.448 233 101C233 101.552 233.448 102 234 102C234.552 102 235 101.552 235 101C235 100.448 234.552 100 234 100Z" fill="#A07F58"/>
<path d="M234 -4.37114e-08C233.448 -6.78525e-08 233 0.447715 233 1C233 1.55228 233.448 2 234 2C234.552 2 235 1.55228 235 1C235 0.447715 234.552 -1.95703e-08 234 -4.37114e-08Z" fill="#A07F58"/>
<path d="M234 20C233.448 20 233 20.4477 233 21C233 21.5523 233.448 22 234 22C234.552 22 235 21.5523 235 21C235 20.4477 234.552 20 234 20Z" fill="#A07F58"/>
<path d="M234 40C233.448 40 233 40.4477 233 41C233 41.5523 233.448 42 234 42C234.552 42 235 41.5523 235 41C235 40.4477 234.552 40 234 40Z" fill="#A07F58"/>
<path d="M234 60C233.448 60 233 60.4477 233 61C233 61.5523 233.448 62 234 62C234.552 62 235 61.5523 235 61C235 60.4477 234.552 60 234 60Z" fill="#A07F58"/>
<path d="M234 80C233.448 80 233 80.4477 233 81C233 81.5523 233.448 82 234 82C234.552 82 235 81.5523 235 81C235 80.4477 234.552 80 234 80Z" fill="#A07F58"/>
<path d="M214 100C213.448 100 213 100.448 213 101C213 101.552 213.448 102 214 102C214.552 102 215 101.552 215 101C215 100.448 214.552 100 214 100Z" fill="#A07F58"/>
<path d="M214 -4.37114e-08C213.448 -6.78525e-08 213 0.447715 213 1C213 1.55228 213.448 2 214 2C214.552 2 215 1.55228 215 1C215 0.447715 214.552 -1.95703e-08 214 -4.37114e-08Z" fill="#A07F58"/>
<path d="M214 20C213.448 20 213 20.4477 213 21C213 21.5523 213.448 22 214 22C214.552 22 215 21.5523 215 21C215 20.4477 214.552 20 214 20Z" fill="#A07F58"/>
<path d="M214 40C213.448 40 213 40.4477 213 41C213 41.5523 213.448 42 214 42C214.552 42 215 41.5523 215 41C215 40.4477 214.552 40 214 40Z" fill="#A07F58"/>
<path d="M214 60C213.448 60 213 60.4477 213 61C213 61.5523 213.448 62 214 62C214.552 62 215 61.5523 215 61C215 60.4477 214.552 60 214 60Z" fill="#A07F58"/>
<path d="M214 80C213.448 80 213 80.4477 213 81C213 81.5523 213.448 82 214 82C214.552 82 215 81.5523 215 81C215 80.4477 214.552 80 214 80Z" fill="#A07F58"/>
<path d="M194 100C193.448 100 193 100.448 193 101C193 101.552 193.448 102 194 102C194.552 102 195 101.552 195 101C195 100.448 194.552 100 194 100Z" fill="#A07F58"/>
<path d="M194 -4.37114e-08C193.448 -6.78525e-08 193 0.447715 193 1C193 1.55228 193.448 2 194 2C194.552 2 195 1.55228 195 1C195 0.447715 194.552 -1.95703e-08 194 -4.37114e-08Z" fill="#A07F58"/>
<path d="M194 20C193.448 20 193 20.4477 193 21C193 21.5523 193.448 22 194 22C194.552 22 195 21.5523 195 21C195 20.4477 194.552 20 194 20Z" fill="#A07F58"/>
<path d="M194 40C193.448 40 193 40.4477 193 41C193 41.5523 193.448 42 194 42C194.552 42 195 41.5523 195 41C195 40.4477 194.552 40 194 40Z" fill="#A07F58"/>
<path d="M194 60C193.448 60 193 60.4477 193 61C193 61.5523 193.448 62 194 62C194.552 62 195 61.5523 195 61C195 60.4477 194.552 60 194 60Z" fill="#A07F58"/>
<path d="M194 80C193.448 80 193 80.4477 193 81C193 81.5523 193.448 82 194 82C194.552 82 195 81.5523 195 81C195 80.4477 194.552 80 194 80Z" fill="#A07F58"/>
<path d="M174 100C173.448 100 173 100.448 173 101C173 101.552 173.448 102 174 102C174.552 102 175 101.552 175 101C175 100.448 174.552 100 174 100Z" fill="#A07F58"/>
<path d="M174 -4.37114e-08C173.448 -6.78525e-08 173 0.447715 173 1C173 1.55228 173.448 2 174 2C174.552 2 175 1.55228 175 1C175 0.447715 174.552 -1.95703e-08 174 -4.37114e-08Z" fill="#A07F58"/>
<path d="M174 20C173.448 20 173 20.4477 173 21C173 21.5523 173.448 22 174 22C174.552 22 175 21.5523 175 21C175 20.4477 174.552 20 174 20Z" fill="#A07F58"/>
<path d="M174 40C173.448 40 173 40.4477 173 41C173 41.5523 173.448 42 174 42C174.552 42 175 41.5523 175 41C175 40.4477 174.552 40 174 40Z" fill="#A07F58"/>
<path d="M174 60C173.448 60 173 60.4477 173 61C173 61.5523 173.448 62 174 62C174.552 62 175 61.5523 175 61C175 60.4477 174.552 60 174 60Z" fill="#A07F58"/>
<path d="M174 80C173.448 80 173 80.4477 173 81C173 81.5523 173.448 82 174 82C174.552 82 175 81.5523 175 81C175 80.4477 174.552 80 174 80Z" fill="#A07F58"/>
<path d="M154 100C153.448 100 153 100.448 153 101C153 101.552 153.448 102 154 102C154.552 102 155 101.552 155 101C155 100.448 154.552 100 154 100Z" fill="#A07F58"/>
<path d="M154 -4.37114e-08C153.448 -6.78525e-08 153 0.447715 153 1C153 1.55228 153.448 2 154 2C154.552 2 155 1.55228 155 1C155 0.447715 154.552 -1.95703e-08 154 -4.37114e-08Z" fill="#A07F58"/>
<path d="M154 20C153.448 20 153 20.4477 153 21C153 21.5523 153.448 22 154 22C154.552 22 155 21.5523 155 21C155 20.4477 154.552 20 154 20Z" fill="#A07F58"/>
<path d="M154 40C153.448 40 153 40.4477 153 41C153 41.5523 153.448 42 154 42C154.552 42 155 41.5523 155 41C155 40.4477 154.552 40 154 40Z" fill="#A07F58"/>
<path d="M154 60C153.448 60 153 60.4477 153 61C153 61.5523 153.448 62 154 62C154.552 62 155 61.5523 155 61C155 60.4477 154.552 60 154 60Z" fill="#A07F58"/>
<path d="M154 80C153.448 80 153 80.4477 153 81C153 81.5523 153.448 82 154 82C154.552 82 155 81.5523 155 81C155 80.4477 154.552 80 154 80Z" fill="#A07F58"/>
<path d="M134 100C133.448 100 133 100.448 133 101C133 101.552 133.448 102 134 102C134.552 102 135 101.552 135 101C135 100.448 134.552 100 134 100Z" fill="#A07F58"/>
<path d="M134 -4.37114e-08C133.448 -6.78525e-08 133 0.447715 133 1C133 1.55228 133.448 2 134 2C134.552 2 135 1.55228 135 1C135 0.447715 134.552 -1.95703e-08 134 -4.37114e-08Z" fill="#A07F58"/>
<path d="M134 20C133.448 20 133 20.4477 133 21C133 21.5523 133.448 22 134 22C134.552 22 135 21.5523 135 21C135 20.4477 134.552 20 134 20Z" fill="#A07F58"/>
<path d="M134 40C133.448 40 133 40.4477 133 41C133 41.5523 133.448 42 134 42C134.552 42 135 41.5523 135 41C135 40.4477 134.552 40 134 40Z" fill="#A07F58"/>
<path d="M134 60C133.448 60 133 60.4477 133 61C133 61.5523 133.448 62 134 62C134.552 62 135 61.5523 135 61C135 60.4477 134.552 60 134 60Z" fill="#A07F58"/>
<path d="M134 80C133.448 80 133 80.4477 133 81C133 81.5523 133.448 82 134 82C134.552 82 135 81.5523 135 81C135 80.4477 134.552 80 134 80Z" fill="#A07F58"/>
<path d="M113 100C112.448 100 112 100.448 112 101C112 101.552 112.448 102 113 102C113.552 102 114 101.552 114 101C114 100.448 113.552 100 113 100Z" fill="#A07F58"/>
<path d="M113 -4.37114e-08C112.448 -6.78525e-08 112 0.447715 112 1C112 1.55228 112.448 2 113 2C113.552 2 114 1.55228 114 1C114 0.447715 113.552 -1.95703e-08 113 -4.37114e-08Z" fill="#A07F58"/>
<path d="M113 20C112.448 20 112 20.4477 112 21C112 21.5523 112.448 22 113 22C113.552 22 114 21.5523 114 21C114 20.4477 113.552 20 113 20Z" fill="#A07F58"/>
<path d="M113 40C112.448 40 112 40.4477 112 41C112 41.5523 112.448 42 113 42C113.552 42 114 41.5523 114 41C114 40.4477 113.552 40 113 40Z" fill="#A07F58"/>
<path d="M113 60C112.448 60 112 60.4477 112 61C112 61.5523 112.448 62 113 62C113.552 62 114 61.5523 114 61C114 60.4477 113.552 60 113 60Z" fill="#A07F58"/>
<path d="M113 80C112.448 80 112 80.4477 112 81C112 81.5523 112.448 82 113 82C113.552 82 114 81.5523 114 81C114 80.4477 113.552 80 113 80Z" fill="#A07F58"/>
<path d="M93 100C92.4477 100 92 100.448 92 101C92 101.552 92.4477 102 93 102C93.5523 102 94 101.552 94 101C94 100.448 93.5523 100 93 100Z" fill="#A07F58"/>
<path d="M93 -4.37114e-08C92.4477 -6.78525e-08 92 0.447715 92 1C92 1.55228 92.4477 2 93 2C93.5523 2 94 1.55228 94 1C94 0.447715 93.5523 -1.95703e-08 93 -4.37114e-08Z" fill="#A07F58"/>
<path d="M93 20C92.4477 20 92 20.4477 92 21C92 21.5523 92.4477 22 93 22C93.5523 22 94 21.5523 94 21C94 20.4477 93.5523 20 93 20Z" fill="#A07F58"/>
<path d="M93 40C92.4477 40 92 40.4477 92 41C92 41.5523 92.4477 42 93 42C93.5523 42 94 41.5523 94 41C94 40.4477 93.5523 40 93 40Z" fill="#A07F58"/>
<path d="M93 60C92.4477 60 92 60.4477 92 61C92 61.5523 92.4477 62 93 62C93.5523 62 94 61.5523 94 61C94 60.4477 93.5523 60 93 60Z" fill="#A07F58"/>
<path d="M93 80C92.4477 80 92 80.4477 92 81C92 81.5523 92.4477 82 93 82C93.5523 82 94 81.5523 94 81C94 80.4477 93.5523 80 93 80Z" fill="#A07F58"/>
<path d="M73 100C72.4477 100 72 100.448 72 101C72 101.552 72.4477 102 73 102C73.5523 102 74 101.552 74 101C74 100.448 73.5523 100 73 100Z" fill="#A07F58"/>
<path d="M73 -4.37114e-08C72.4477 -6.78525e-08 72 0.447715 72 1C72 1.55228 72.4477 2 73 2C73.5523 2 74 1.55228 74 1C74 0.447715 73.5523 -1.95703e-08 73 -4.37114e-08Z" fill="#A07F58"/>
<path d="M73 20C72.4477 20 72 20.4477 72 21C72 21.5523 72.4477 22 73 22C73.5523 22 74 21.5523 74 21C74 20.4477 73.5523 20 73 20Z" fill="#A07F58"/>
<path d="M73 40C72.4477 40 72 40.4477 72 41C72 41.5523 72.4477 42 73 42C73.5523 42 74 41.5523 74 41C74 40.4477 73.5523 40 73 40Z" fill="#A07F58"/>
<path d="M73 60C72.4477 60 72 60.4477 72 61C72 61.5523 72.4477 62 73 62C73.5523 62 74 61.5523 74 61C74 60.4477 73.5523 60 73 60Z" fill="#A07F58"/>
<path d="M73 80C72.4477 80 72 80.4477 72 81C72 81.5523 72.4477 82 73 82C73.5523 82 74 81.5523 74 81C74 80.4477 73.5523 80 73 80Z" fill="#A07F58"/>
<path d="M53 100C52.4477 100 52 100.448 52 101C52 101.552 52.4477 102 53 102C53.5523 102 54 101.552 54 101C54 100.448 53.5523 100 53 100Z" fill="#A07F58"/>
<path d="M53 -4.37114e-08C52.4477 -6.78525e-08 52 0.447715 52 1C52 1.55228 52.4477 2 53 2C53.5523 2 54 1.55228 54 1C54 0.447715 53.5523 -1.95703e-08 53 -4.37114e-08Z" fill="#A07F58"/>
<path d="M53 20C52.4477 20 52 20.4477 52 21C52 21.5523 52.4477 22 53 22C53.5523 22 54 21.5523 54 21C54 20.4477 53.5523 20 53 20Z" fill="#A07F58"/>
<path d="M53 40C52.4477 40 52 40.4477 52 41C52 41.5523 52.4477 42 53 42C53.5523 42 54 41.5523 54 41C54 40.4477 53.5523 40 53 40Z" fill="#A07F58"/>
<path d="M53 60C52.4477 60 52 60.4477 52 61C52 61.5523 52.4477 62 53 62C53.5523 62 54 61.5523 54 61C54 60.4477 53.5523 60 53 60Z" fill="#A07F58"/>
<path d="M53 80C52.4477 80 52 80.4477 52 81C52 81.5523 52.4477 82 53 82C53.5523 82 54 81.5523 54 81C54 80.4477 53.5523 80 53 80Z" fill="#A07F58"/>
<path d="M33 100C32.4477 100 32 100.448 32 101C32 101.552 32.4477 102 33 102C33.5523 102 34 101.552 34 101C34 100.448 33.5523 100 33 100Z" fill="#A07F58"/>
<path d="M33 -4.37114e-08C32.4477 -6.78525e-08 32 0.447715 32 1C32 1.55228 32.4477 2 33 2C33.5523 2 34 1.55228 34 1C34 0.447715 33.5523 -1.95703e-08 33 -4.37114e-08Z" fill="#A07F58"/>
<path d="M33 20C32.4477 20 32 20.4477 32 21C32 21.5523 32.4477 22 33 22C33.5523 22 34 21.5523 34 21C34 20.4477 33.5523 20 33 20Z" fill="#A07F58"/>
<path d="M33 40C32.4477 40 32 40.4477 32 41C32 41.5523 32.4477 42 33 42C33.5523 42 34 41.5523 34 41C34 40.4477 33.5523 40 33 40Z" fill="#A07F58"/>
<path d="M33 60C32.4477 60 32 60.4477 32 61C32 61.5523 32.4477 62 33 62C33.5523 62 34 61.5523 34 61C34 60.4477 33.5523 60 33 60Z" fill="#A07F58"/>
<path d="M33 80C32.4477 80 32 80.4477 32 81C32 81.5523 32.4477 82 33 82C33.5523 82 34 81.5523 34 81C34 80.4477 33.5523 80 33 80Z" fill="#A07F58"/>
<path d="M13 100C12.4477 100 12 100.448 12 101C12 101.552 12.4477 102 13 102C13.5523 102 14 101.552 14 101C14 100.448 13.5523 100 13 100Z" fill="#A07F58"/>
<path d="M13 -4.37114e-08C12.4477 -6.78525e-08 12 0.447715 12 1C12 1.55228 12.4477 2 13 2C13.5523 2 14 1.55228 14 1C14 0.447715 13.5523 -1.95703e-08 13 -4.37114e-08Z" fill="#A07F58"/>
<path d="M13 20C12.4477 20 12 20.4477 12 21C12 21.5523 12.4477 22 13 22C13.5523 22 14 21.5523 14 21C14 20.4477 13.5523 20 13 20Z" fill="#A07F58"/>
<path d="M13 40C12.4477 40 12 40.4477 12 41C12 41.5523 12.4477 42 13 42C13.5523 42 14 41.5523 14 41C14 40.4477 13.5523 40 13 40Z" fill="#A07F58"/>
<path d="M13 60C12.4477 60 12 60.4477 12 61C12 61.5523 12.4477 62 13 62C13.5523 62 14 61.5523 14 61C14 60.4477 13.5523 60 13 60Z" fill="#A07F58"/>
<path d="M13 80C12.4477 80 12 80.4477 12 81C12 81.5523 12.4477 82 13 82C13.5523 82 14 81.5523 14 81C14 80.4477 13.5523 80 13 80Z" fill="#A07F58"/>
</g>
<defs>
<clipPath id="clip0">
<rect width="110" height="235" fill="white" transform="translate(235) rotate(90)"/>
</clipPath>
</defs>
</svg>
