<svg width="132" height="132" viewBox="0 0 132 132" fill="none" xmlns="http://www.w3.org/2000/svg">
<path d="M68.4106 49.9918C68.1232 48.8411 68.8171 47.6703 69.9604 47.3834C71.1037 47.0932 72.2602 47.7937 72.5444 48.9478C72.8318 50.0986 72.1379 51.2694 70.9946 51.5562C69.8546 51.8431 68.6981 51.1459 68.4106 49.9918Z" fill="#290E17"/>
<path d="M74.6791 46.7662C73.6911 46.1758 73.3607 44.8883 73.9456 43.891C74.5304 42.8936 75.8059 42.5601 76.7939 43.1505C77.7819 43.7409 78.1123 45.0284 77.5275 46.0257C76.9426 47.0264 75.6671 47.3566 74.6791 46.7662Z" fill="#290E17"/>
<path d="M77.069 40.0888C75.9587 40.249 74.9344 39.4684 74.7758 38.3477C74.6205 37.2269 75.3904 36.1929 76.5006 36.0328C77.6109 35.876 78.6352 36.6532 78.7939 37.774C78.9492 38.8947 78.1792 39.9321 77.069 40.0888Z" fill="#290E17"/>
<path d="M74.8647 33.2974C74.0419 34.0245 72.7929 33.9411 72.0725 33.1106C71.3522 32.28 71.4348 31.0192 72.2576 30.292C73.0804 29.5649 74.3294 29.6482 75.0497 30.4788C75.7701 31.3094 75.6842 32.5702 74.8647 33.2974Z" fill="#290E17"/>
<path d="M69.3862 28.768C69.0491 29.7887 67.9587 30.3391 66.9476 29.9988C65.9397 29.6586 65.3912 28.5579 65.7283 27.5372C66.0653 26.5198 67.1558 25.9661 68.1669 26.3064C69.178 26.6466 69.7232 27.7473 69.3862 28.768Z" fill="#290E17"/>
<path d="M62.4569 27.5637C62.6023 28.5977 61.8919 29.5583 60.8675 29.7084C59.8432 29.8552 58.8915 29.138 58.7462 28.104C58.5975 27.07 59.3112 26.1093 60.3355 25.9592C61.3599 25.8091 62.3115 26.5296 62.4569 27.5637Z" fill="#290E17"/>
<path d="M55.7128 29.5781C56.2778 30.422 56.0564 31.5662 55.2204 32.1365C54.3844 32.7069 53.251 32.4834 52.686 31.6395C52.121 30.7956 52.3424 29.6515 53.1784 29.0812C54.0177 28.5141 55.151 28.7376 55.7128 29.5781Z" fill="#290E17"/>
<path d="M50.4729 34.3417C51.3089 34.8554 51.5732 35.9594 51.0643 36.8034C50.5555 37.6473 49.4617 37.9141 48.6257 37.4004C47.7897 36.8867 47.5254 35.7827 48.0343 34.9388C48.5464 34.0915 49.6369 33.8247 50.4729 34.3417Z" fill="#290E17"/>
<path d="M47.5819 40.8224C48.5137 41.0126 49.1184 41.9299 48.9268 42.8738C48.7384 43.8145 47.8297 44.4249 46.8979 44.2314C45.9661 44.0413 45.3614 43.124 45.553 42.18C45.7381 41.2394 46.6468 40.6323 47.5819 40.8224Z" fill="#290E17"/>
<path d="M47.1652 47.8975C48.0739 47.7273 48.9462 48.3278 49.1147 49.245C49.2833 50.1623 48.6852 51.0429 47.7798 51.213C46.8711 51.3865 45.9987 50.7827 45.8302 49.8655C45.6584 48.9482 46.2565 48.0676 47.1652 47.8975Z" fill="#290E17"/>
<path d="M49.4581 54.7518C50.2248 54.2881 51.2194 54.5383 51.682 55.3155C52.1413 56.0893 51.8935 57.0967 51.1235 57.5603C50.3569 58.0239 49.3623 57.7738 48.8997 56.9966C48.4404 56.2194 48.6915 55.2154 49.4581 54.7518Z" fill="#290E17"/>
<path d="M53.8864 60.3092C54.4349 59.6321 55.4263 59.5354 56.0937 60.0891C56.7645 60.6428 56.8603 61.6435 56.3118 62.3173C55.7633 62.9944 54.772 63.0911 54.1045 62.5374C53.4337 61.9837 53.3346 60.983 53.8864 60.3092Z" fill="#290E17"/>
<path d="M59.8309 64.0482C60.1514 63.2677 61.0403 62.8941 61.8135 63.2176C62.59 63.5412 62.9568 64.4384 62.6363 65.219C62.3158 66.0028 61.4269 66.3731 60.6537 66.0495C59.8804 65.726 59.5136 64.832 59.8309 64.0482Z" fill="#290E17"/>
<path d="M66.7427 65.7928C66.7889 64.9756 67.4795 64.3518 68.2891 64.3952C69.0987 64.4419 69.7166 65.139 69.6736 65.9562C69.6274 66.7735 68.9368 67.3972 68.1272 67.3539C67.3176 67.3072 66.6964 66.61 66.7427 65.7928Z" fill="#290E17"/>
<path d="M73.6828 65.1953C73.5176 64.4248 74 63.6609 74.7666 63.4941C75.5299 63.3274 76.2866 63.8144 76.4519 64.5882C76.6171 65.3587 76.1346 66.1226 75.368 66.2894C74.6047 66.4562 73.8513 65.9692 73.6828 65.1953Z" fill="#290E17"/>
<path d="M80.4469 62.654C80.0537 62.0035 80.2553 61.1563 80.8996 60.7594C81.544 60.3624 82.3833 60.5659 82.7765 61.2164C83.1697 61.8668 82.9682 62.714 82.3238 63.111C81.6795 63.5079 80.8402 63.3044 80.4469 62.654Z" fill="#290E17"/>
<path d="M85.8191 58.2173C85.2805 57.727 85.2375 56.8897 85.7199 56.3427C86.2057 55.799 87.0351 55.7556 87.577 56.246C88.1156 56.7363 88.1585 57.5735 87.6728 58.1206C87.1871 58.6609 86.3577 58.7043 85.8191 58.2173Z" fill="#290E17"/>
<path d="M89.9685 52.4137C89.3439 52.0968 89.0928 51.3297 89.4067 50.7026C89.7206 50.0722 90.4806 49.822 91.1018 50.1355C91.7264 50.4524 91.9775 51.2196 91.6636 51.8467C91.353 52.4771 90.593 52.7273 89.9685 52.4137Z" fill="#290E17"/>
<path d="M92.3854 45.6591C91.7311 45.5123 91.3214 44.8585 91.4668 44.1981C91.6122 43.5376 92.2598 43.124 92.9141 43.2708C93.5684 43.4176 93.9781 44.0713 93.8327 44.7318C93.6873 45.3922 93.0397 45.8092 92.3854 45.6591Z" fill="#290E17"/>
<path d="M92.9689 38.6078C92.3279 38.6412 91.7827 38.1442 91.7496 37.4971C91.7166 36.85 92.2089 36.2996 92.85 36.2662C93.491 36.2329 94.0362 36.7299 94.0693 37.377C94.1023 38.0241 93.61 38.5744 92.9689 38.6078Z" fill="#290E17"/>
<path d="M91.6565 31.4562C91.0716 31.6396 90.4471 31.3128 90.2654 30.7224C90.0836 30.132 90.4074 29.5049 90.9923 29.3181C91.5772 29.1346 92.1984 29.4615 92.3834 30.0519C92.5652 30.6456 92.2414 31.2727 91.6565 31.4562Z" fill="#290E17"/>
<path d="M88.6936 25.0986C88.2111 25.4289 87.5502 25.3021 87.2231 24.8151C86.896 24.3281 87.0215 23.661 87.504 23.3308C87.9864 23.0006 88.6473 23.1273 88.9744 23.6143C89.3049 24.1013 89.1793 24.7684 88.6936 25.0986Z" fill="#290E17"/>
<path d="M84.1111 19.6383C83.6782 19.9885 83.0438 19.9185 82.6935 19.4815C82.3465 19.0412 82.4159 18.4041 82.8488 18.0506C83.2817 17.7003 83.9161 17.7704 84.2664 18.2073C84.6166 18.6476 84.5439 19.2881 84.1111 19.6383Z" fill="#290E17"/>
<path d="M63.6993 35.7556C64 36.9631 63.273 38.1839 62.0768 38.4874C60.8807 38.791 59.6713 38.0571 59.3706 36.8496C59.0699 35.6422 59.7968 34.4213 60.993 34.1178C62.1892 33.8143 63.3986 34.5481 63.6993 35.7556Z" fill="#290E17"/>
<path d="M57.3816 38.9209C58.4158 39.538 58.7595 40.8855 58.1482 41.9296C57.5369 42.9736 56.2019 43.3205 55.171 42.7034C54.1367 42.0863 53.793 40.7388 54.4044 39.6947C55.0157 38.6507 56.3473 38.3038 57.3816 38.9209Z" fill="#290E17"/>
<path d="M54.9337 45.5924C56.0935 45.4256 57.1641 46.2428 57.3293 47.4103C57.4912 48.5811 56.685 49.6618 55.5285 49.8286C54.3686 49.9954 53.298 49.1782 53.1328 48.0107C52.9676 46.8399 53.7738 45.7558 54.9337 45.5924Z" fill="#290E17"/>
<path d="M57.0937 52.4068C57.9495 51.6496 59.2547 51.7364 60.0048 52.6003C60.7549 53.4675 60.669 54.7818 59.8131 55.5389C58.954 56.2961 57.6521 56.2094 56.902 55.3455C56.1486 54.4816 56.2345 53.1673 57.0937 52.4068Z" fill="#290E17"/>
<path d="M62.5507 56.9764C62.9009 55.9157 64.0376 55.3386 65.0917 55.6955C66.1425 56.0491 66.7141 57.1965 66.3639 58.2606C66.0136 59.3246 64.8769 59.8983 63.8228 59.5414C62.7687 59.1879 62.2004 58.0404 62.5507 56.9764Z" fill="#290E17"/>
<path d="M69.4788 58.2207C69.3268 57.1433 70.0669 56.146 71.1342 55.9892C72.2015 55.8358 73.1928 56.5829 73.3448 57.6603C73.4968 58.7377 72.7566 59.7384 71.6894 59.8918C70.6221 60.0453 69.6341 59.2981 69.4788 58.2207Z" fill="#290E17"/>
<path d="M76.2401 56.2327C75.6553 55.3554 75.8833 54.1646 76.7523 53.5742C77.6214 52.9838 78.801 53.214 79.3859 54.0913C79.9708 54.9685 79.7428 56.1593 78.8737 56.7497C78.0047 57.3401 76.825 57.11 76.2401 56.2327Z" fill="#290E17"/>
<path d="M81.5067 51.4895C80.6376 50.9558 80.3634 49.8117 80.8921 48.9345C81.4208 48.0572 82.5541 47.7804 83.4232 48.3141C84.2922 48.8477 84.5665 49.9918 84.0378 50.8691C83.5091 51.7464 82.3757 52.0232 81.5067 51.4895Z" fill="#290E17"/>
<path d="M84.4214 45.0118C83.4532 44.815 82.8287 43.8644 83.027 42.8871C83.2219 41.9097 84.1669 41.2793 85.1318 41.4794C86.1 41.6762 86.7245 42.6302 86.5262 43.6042C86.3313 44.5782 85.3896 45.2086 84.4214 45.0118Z" fill="#290E17"/>
<path d="M84.8611 37.9339C83.9227 38.1107 83.0173 37.487 82.8422 36.5397C82.667 35.5924 83.285 34.6784 84.2234 34.5016C85.1618 34.3249 86.0672 34.9486 86.2424 35.8959C86.4208 36.8432 85.7996 37.7572 84.8611 37.9339Z" fill="#290E17"/>
<path d="M82.5841 31.0659C81.791 31.5462 80.7634 31.286 80.2876 30.4855C79.8117 29.6849 80.0695 28.6476 80.8625 28.1673C81.6556 27.6869 82.6832 27.9471 83.1591 28.7477C83.6349 29.5482 83.3771 30.5856 82.5841 31.0659Z" fill="#290E17"/>
<path d="M78.1693 25.4955C77.6009 26.1926 76.5832 26.296 75.8893 25.7223C75.1987 25.1486 75.0962 24.1212 75.6646 23.4208C76.2329 22.7236 77.2507 22.6202 77.9446 23.1939C78.6352 23.7677 78.7343 24.7984 78.1693 25.4955Z" fill="#290E17"/>
<path d="M72.2253 21.7398C71.8949 22.547 70.9796 22.9306 70.1833 22.5971C69.3836 22.2635 69.0036 21.3396 69.3341 20.5357C69.6645 19.7285 70.5765 19.3449 71.3761 19.6784C72.1758 20.012 72.5558 20.936 72.2253 21.7398Z" fill="#290E17"/>
<path d="M65.3115 19.9818C65.2652 20.8224 64.5548 21.4628 63.7221 21.4161C62.8894 21.3694 62.2549 20.6523 62.3012 19.8117C62.3475 18.9711 63.0612 18.3307 63.8906 18.3774C64.72 18.4241 65.3577 19.1412 65.3115 19.9818Z" fill="#290E17"/>
<path d="M58.3665 20.5656C58.5383 21.3561 58.0393 22.1366 57.2562 22.3101C56.4731 22.4835 55.6998 21.9799 55.528 21.1893C55.3562 20.3988 55.8551 19.6183 56.6383 19.4448C57.4214 19.2747 58.1979 19.775 58.3665 20.5656Z" fill="#290E17"/>
<path d="M51.5958 23.1003C51.999 23.7641 51.7908 24.6313 51.1332 25.0383C50.4757 25.4452 49.6165 25.2351 49.2134 24.5713C48.8103 23.9075 49.0185 23.0403 49.676 22.6333C50.3336 22.2264 51.1927 22.4365 51.5958 23.1003Z" fill="#290E17"/>
<path d="M46.215 27.5332C46.7668 28.0335 46.8098 28.8908 46.3141 29.4445C45.8185 30.0015 44.9693 30.0449 44.4207 29.5445C43.8689 29.0442 43.826 28.187 44.3216 27.6333C44.814 27.0795 45.6632 27.0328 46.215 27.5332Z" fill="#290E17"/>
<path d="M42.0521 33.3374C42.6865 33.661 42.941 34.4415 42.6237 35.0819C42.3032 35.7224 41.5333 35.9792 40.8956 35.659C40.2611 35.3354 40.0067 34.5582 40.3239 33.9145C40.6478 33.2741 41.421 33.0172 42.0521 33.3374Z" fill="#290E17"/>
<path d="M39.634 40.0922C40.2981 40.2423 40.7145 40.9061 40.5658 41.5732C40.4171 42.2437 39.7595 42.664 39.0987 42.5139C38.4345 42.3638 38.0181 41.7 38.1668 41.0329C38.3122 40.3657 38.9698 39.9454 39.634 40.0922Z" fill="#290E17"/>
<path d="M39.0429 47.1505C39.6905 47.1171 40.2423 47.6175 40.2754 48.2746C40.3084 48.9284 39.8128 49.4854 39.1651 49.5188C38.5175 49.5521 37.9656 49.0518 37.9293 48.3947C37.8962 47.7442 38.3952 47.1839 39.0429 47.1505Z" fill="#290E17"/>
<path d="M40.3553 54.3048C40.9435 54.118 41.5713 54.4516 41.7563 55.0453C41.9414 55.6424 41.6143 56.2762 41.0228 56.4596C40.4346 56.6464 39.8068 56.3162 39.6217 55.7191C39.4367 55.1254 39.7671 54.4916 40.3553 54.3048Z" fill="#290E17"/>
<path d="M43.3183 60.6696C43.804 60.336 44.4649 60.4628 44.7954 60.9531C45.1258 61.4434 45.0002 62.1105 44.5145 62.4441C44.0287 62.7777 43.3679 62.6509 43.0374 62.1606C42.7037 61.6702 42.8326 61.0031 43.3183 60.6696Z" fill="#290E17"/>
<path d="M47.904 66.1331C48.3368 65.7828 48.9713 65.8529 49.3215 66.2898C49.6685 66.7301 49.5991 67.3672 49.1662 67.7208C48.7333 68.0711 48.0989 68.001 47.7487 67.564C47.3984 67.1237 47.4678 66.4833 47.904 66.1331Z" fill="#290E17"/>
<path d="M25.8346 75.7257L25.742 75.122H25.6033L25.5107 75.7257L22.474 82.9973H29.0563L25.8346 75.7257ZM22.0841 83.9946L20.541 87.8272H22.5897V88.6411H17.8281V87.8272H19.4836L25.6958 72.8438H26.6177L33.3586 87.8272H34.9711V88.6411H29.172V87.8272H31.2438L29.4495 83.9946H22.0841Z" fill="#290E17"/>
<path d="M45.8415 79.6454H44.8832C44.8832 79.4419 44.8634 78.9015 44.718 78.548C44.3678 77.7107 42.8775 76.7835 41.2749 76.7835C38.0697 76.7835 36.0276 79.0683 36.0276 82.3405C36.0276 85.2592 37.9045 88.0644 41.569 88.0644C43.2443 88.0644 44.6057 87.4873 45.8415 86.3732L46.3768 86.8202C45.749 87.544 44.1662 88.8449 40.8883 88.8449C36.3415 88.8449 34.2598 85.556 34.2598 82.1904C34.2598 78.4913 37.1874 76.0029 41.0172 76.0029C43.4293 76.0029 44.4768 77.0269 44.718 77.2671L44.8469 77.6007H44.9394L44.8832 77.2671V76.2064H45.8415V79.6454Z" fill="#290E17"/>
<path d="M53.4364 78.3078L53.3637 77.8242H53.2547L53.1787 78.3078L50.75 84.1251H56.0171L53.4364 78.3078ZM50.4361 84.9223L49.2036 87.991H50.8425V88.6415H47.0293V87.991H48.3543L53.3274 76.0029H54.0642L59.4602 87.991H60.7489V88.6415H56.1096V87.991H57.7651L56.3277 84.9223H50.4361Z" fill="#290E17"/>
<path d="M63.7112 87.8611H65.6443C69.1072 87.8611 71.0006 85.3694 71.0006 82.4908C71.0006 79.9624 69.474 76.9904 65.6443 76.9904H63.7112V87.8611ZM66.3646 76.2065C69.8805 76.2065 72.7519 78.8083 72.7519 82.3774C72.7519 85.9464 70.0457 88.6416 66.1432 88.6416H60.582V87.9912H62.1086V76.857H60.582V76.2065H66.3646Z" fill="#290E17"/>
<path d="M83.4522 76.2065V78.418H82.5501V77.1905H77.098V81.6335H81.648V80.1659H82.5501V83.7349H81.648V82.4141H77.098V87.6543H82.8805V85.9631H83.7826V88.6416H73.9688V87.9912H75.4987V76.857H73.9688V76.2065H83.4522Z" fill="#290E17"/>
<path d="M93.8053 86.3367H93.9143L93.954 86.0031L99.2013 76.2065H102.331V76.857H100.801V87.9912H102.331V88.6416H97.6714V87.9912H99.2013V78.0478L99.2376 77.5641H99.1451L98.9799 78.0478L93.6963 87.8611H93.1444L87.95 78.0478L87.7848 77.5641H87.6923L87.7484 78.0478V87.9912H89.275V88.6416H85.4453V87.9912H86.9752V76.857H85.4453V76.2065H88.5778L93.769 86.0031L93.8053 86.3367Z" fill="#290E17"/>
<path d="M106.807 76.2065V76.857H105.132L108.261 82.6009L108.354 82.9911H108.446L108.555 82.6009L111.833 76.857H110.158V76.2065H114.173V76.857H112.791L108.813 83.7516V87.9912H110.343V88.6416H105.684V87.9912H107.21V83.9384L103.255 76.857H101.91V76.2065H106.807Z" fill="#290E17"/>
<path d="M35.4466 98.6447C36.5833 98.6447 37.2409 97.1871 37.2409 95.8795C37.2409 95.1991 36.8972 94.7221 36.2694 94.7221C35.1327 94.7221 34.485 96.2164 34.485 97.4205C34.485 98.0543 34.7824 98.6447 35.4466 98.6447ZM36.3355 94.4219C37.5283 94.4219 38.0273 95.3358 38.0273 96.1297C38.0273 97.2704 37.0756 98.9416 35.3706 98.9416C34.2141 98.9416 33.6953 98.0543 33.6953 97.2037C33.6986 96.0763 34.6337 94.4219 36.3355 94.4219Z" fill="#290E17"/>
<path d="M41.6361 94.5253L41.7848 93.8249C41.9897 92.9209 42.6539 92.5073 43.209 92.5073C43.5692 92.5073 43.784 92.6374 43.9954 92.9276L43.513 93.3579C43.4667 93.1044 43.3742 92.8075 43.1231 92.8075C42.7431 92.8075 42.6142 93.3579 42.558 93.6181L42.3532 94.5253H43.2586L43.1925 94.8522H42.2871L41.5106 98.5147H42.178L42.112 98.8416H40.0566L40.1227 98.5147H40.7902L41.5667 94.8522H40.8993L40.9653 94.5253H41.6361Z" fill="#290E17"/>
<path d="M50.776 95.8697C51.0271 95.9531 51.3311 95.9831 51.6913 95.9831C52.7652 95.9831 53.1915 95.1892 53.1915 94.5088C53.1915 93.7916 52.7024 92.9878 51.7012 92.9878H50.776V95.8697ZM50.776 98.5115H51.6087V98.8383H49.2031V98.5115H49.9697V92.9077H49.2031V92.5908H52.0349C53.4029 92.5908 54.0704 93.4581 54.0704 94.4687C54.0704 95.5061 53.2939 96.3734 51.8499 96.3734C51.4137 96.3734 51.0833 96.3167 50.776 96.2333V98.5115Z" fill="#290E17"/>
<path d="M58.22 95.6829H59.1353C60.0704 95.6829 60.5694 94.9457 60.5694 94.2986C60.5694 93.5415 60.0043 92.9811 59.1154 92.9811H58.2167V95.6829H58.22ZM59.4128 92.5908C60.9956 92.5908 61.4219 93.5815 61.4219 94.2353C61.4219 94.9457 60.9593 95.823 59.8391 95.8697L59.7102 95.8797V95.9264L59.9151 95.9631C60.2587 96.1232 60.1827 96.2699 61.184 97.7276C61.5177 98.2246 61.7655 98.5214 62.2579 98.5214H62.3405C62.3669 98.5214 62.4066 98.5214 62.433 98.5114V98.8383C62.2579 98.9217 62.129 98.9417 61.868 98.9417C61.1377 98.9417 61.0088 98.7449 60.0737 97.354C59.1848 96.0098 59.2608 96.0731 58.9833 96.0731H58.2233V98.5114H58.9899V98.8383H56.6504V98.5114H57.417V92.9177H56.6504V92.5908H59.4128Z" fill="#290E17"/>
<path d="M65.4072 92.9177H64.6406V92.5908H66.9801V92.9177H66.2135V98.5115H66.9801V98.8383H64.6406V98.5115H65.4072V92.9177Z" fill="#290E17"/>
<path d="M71.8539 92.5908V92.9177H70.8659L72.7791 97.6442L72.8089 97.9344H72.8915L72.9179 97.6442L74.8146 92.9177H73.8332V92.5908H76.1463V92.9177H75.2673L72.9014 98.8383H72.343L69.911 92.9177H69.0684V92.5908H71.8539Z" fill="#290E17"/>
<path d="M80.3174 93.6481L80.2811 93.4046H80.2249L80.1886 93.6481L78.966 96.5701H81.6127L80.3174 93.6481ZM78.8107 96.9703L78.1894 98.5114H79.0122V98.8382H77.0957V98.5114H77.7632L80.2613 92.4873H80.6313L83.3409 98.5114H83.9886V98.8382H81.6557V98.5114H82.4884L81.768 96.9703H78.8107Z" fill="#290E17"/>
<path d="M87.0362 98.8383V98.5115H87.8028V93.0878H85.8962V93.9451H85.4336V92.5908H90.975V93.9451H90.5124V93.0878H88.6091V98.5115H89.3757V98.8383H87.0362Z" fill="#290E17"/>
<path d="M98.134 92.5908V93.7016H97.6813V93.0878H94.942V95.3193H97.2286V94.5822H97.6813V96.3734H97.2286V95.7096H94.942V98.3447H97.8465V97.4941H98.2992V98.8383H93.3691V98.5115H94.1357V92.9177H93.3691V92.5908H98.134Z" fill="#290E17"/>
<path d="M27.2016 101.6H25.5957V100.917H30.4961V101.6H28.8868V113.315H30.4961V113.999H25.5957V113.315H27.2016V101.6Z" fill="#290E17"/>
<path d="M34.805 103.535L41.9325 111.433L42.0746 111.747H42.1506L42.1043 111.417V104.082H40.819V103.535H44.0704V104.082H42.785V114.172H42.709L34.5407 105.209L34.3259 104.786H34.2334L34.3391 105.222V113.451H35.6278V113.998H32.373V113.451H33.6584V104.082H32.373V103.535H34.805Z" fill="#290E17"/>
<path d="M48.5661 103.535V104.082H46.9073L50.1159 111.997L50.1621 112.481H50.3009L50.3472 111.997L53.5226 104.082H51.8804V103.535H55.7564V104.082H54.2826L50.3174 113.998H49.3856L45.3113 104.082H43.9004V103.535H48.5661Z" fill="#290E17"/>
<path d="M63.4409 103.535V105.396H62.6809V104.365H58.0945V108.101H61.9209V106.867H62.6809V109.869H61.9209V108.758H58.0945V113.171H62.9585V111.747H63.7185V113.998H55.4609V113.451H56.7463V104.082H55.4609V103.535H63.4409Z" fill="#290E17"/>
<path d="M72.6662 103.535V106.1H71.9524L71.9062 105.71C71.7674 104.536 70.743 104.019 69.4874 104.019C67.9376 104.019 67.0554 104.879 67.0554 105.756C67.0554 107.134 68.8695 107.588 70.3102 108.135C71.6286 108.635 73.2378 109.262 73.2378 111.06C73.2378 112.951 71.6715 114.172 69.5171 114.172C68.4796 114.172 67.5477 114.015 66.6952 113.265L66.5399 112.938H66.4606L66.5399 113.282V113.972H65.8262V111.203H66.5399L66.5696 111.72C66.6159 112.391 67.2999 113.518 69.3453 113.518C70.5382 113.518 71.9954 113.035 71.9954 111.61C71.9954 110.046 70.7265 109.826 69.114 109.155C67.409 108.485 65.9683 107.935 65.9683 106.167C65.9683 104.335 67.5808 103.368 69.3156 103.368C70.4622 103.368 70.9413 103.555 71.7641 104.212L71.9029 104.479H71.9954L71.9326 104.149V103.538H72.6662V103.535Z" fill="#290E17"/>
<path d="M77.0542 113.998V113.451H78.3396V104.365H75.1476V105.803H74.3711V103.535H83.653V105.803H82.8798V104.365H79.6878V113.451H80.9732V113.998H77.0542Z" fill="#290E17"/>
<path d="M90.2624 113.515C92.6184 113.515 94.4754 111.59 94.4754 108.758C94.4754 105.926 92.6151 104.018 90.2624 104.018C87.8766 104.018 86.046 105.926 86.046 108.758C86.046 111.59 87.8733 113.515 90.2624 113.515ZM90.2293 103.361C94.2573 103.361 95.9459 106.49 95.9459 108.758C95.9459 111.01 94.2573 114.172 90.2293 114.172C86.2608 114.172 84.5723 111.06 84.5723 108.758C84.5723 106.443 86.2641 103.361 90.2293 103.361Z" fill="#290E17"/>
<path d="M99.3537 108.711H100.887C102.453 108.711 103.289 107.474 103.289 106.397C103.289 105.129 102.344 104.192 100.857 104.192H99.3537V108.711ZM101.353 103.535C104.003 103.535 104.713 105.192 104.713 106.287C104.713 107.474 103.937 108.945 102.063 109.025L101.845 109.042V109.118L102.185 109.182C102.757 109.449 102.635 109.699 104.31 112.137C104.869 112.968 105.285 113.468 106.108 113.468H106.246C106.293 113.468 106.356 113.468 106.402 113.451V113.998C106.108 114.138 105.89 114.172 105.457 114.172C104.231 114.172 104.016 113.845 102.45 111.513C100.963 109.262 101.085 109.372 100.623 109.372H99.3504V113.455H100.636V114.002H96.7168V113.455H98.0022V104.085H96.7168V103.538H101.353V103.535Z" fill="#290E17"/>
</svg>
